<svg width="64" height="64" viewBox="0 0 64 64" fill="none" xmlns="http://www.w3.org/2000/svg">
<rect width="64" height="64" rx="32" fill="#575445"/>
<path d="M41.6877 18C43.3377 18 44.6668 19.3953 44.6668 21.0698V39.7209C44.6668 39.814 44.6668 39.8605 44.621 39.9535L41.2752 45.5349C41.0919 45.814 40.8168 46 40.496 46C40.1752 46 39.9002 45.814 39.7168 45.5349L36.371 39.9535C36.3252 39.907 36.3252 39.814 36.3252 39.7209V21.0698C36.3252 19.3953 37.7002 18 39.3502 18H41.6877ZM27.4794 18.093C28.7169 18.093 29.771 19.1163 29.771 20.4186V43.6279C29.771 44.9302 28.7627 45.9535 27.4794 45.9535H21.2918C20.0085 45.9535 19.0002 44.9302 19.0002 43.6279V20.4186C19.0002 19.1163 20.0085 18.093 21.2918 18.093H27.4794ZM43.7502 23.9535H37.2418V39.5814L40.496 45.0698L43.7502 39.5814V23.9535ZM27.4794 19.0233H21.2918C20.5127 19.0233 19.9168 19.6279 19.9168 20.4186V22.0465H23.8585C24.1335 22.0465 24.3168 22.2326 24.3168 22.5116C24.3168 22.7907 24.1335 22.9767 23.8585 22.9767H19.9168V26.6047H21.4752C21.7502 26.6047 21.9335 26.7907 21.9335 27.0698C21.9335 27.3488 21.7502 27.5349 21.4752 27.5349H19.9168V31.1628H23.8585C24.1335 31.1628 24.3168 31.3488 24.3168 31.6279C24.3168 31.907 24.1335 32.093 23.8585 32.093H19.9168V35.7209H21.4752C21.7502 35.7209 21.9335 35.907 21.9335 36.186C21.9335 36.4651 21.7502 36.6512 21.4752 36.6512H19.9168V40.2791H23.8585C24.1335 40.2791 24.3168 40.4651 24.3168 40.7442C24.3168 41.0233 24.1335 41.2093 23.8585 41.2093H19.9168V43.5814C19.9168 44.3721 20.5127 44.9767 21.2918 44.9767H27.4794C28.2585 44.9767 28.8543 44.3721 28.8543 43.5814V20.4186C28.8543 19.6279 28.2585 19.0233 27.4794 19.0233ZM41.6877 18.9302H39.3502C38.2043 18.9302 37.2418 19.907 37.2418 21.0698V23.0233H43.7502V21.0698C43.7502 19.907 42.8335 18.9302 41.6877 18.9302Z" fill="white"/>
</svg>
