<svg width="64" height="64" viewBox="0 0 64 64" fill="none" xmlns="http://www.w3.org/2000/svg">
<rect width="64" height="64" rx="32" fill="#575445"/>
<path d="M39.2139 18C39.4489 18 39.6369 18.14 39.6839 18.3733C40.06 20.66 41.8463 22.4333 44.1498 22.8067C44.3378 22.8067 44.5258 23.04 44.6668 23.2733V27.5667C44.6668 31.58 43.3976 35.5 41.0942 38.8133C38.8378 42.0333 35.6882 44.5067 32.0216 45.9533C31.9275 46 31.8805 46 31.8335 46C31.7395 46 31.6925 45.9533 31.6455 45.9533C27.9788 44.5067 24.8292 42.0333 22.5728 38.8133C20.2224 35.5 19.0002 31.6267 19.0002 27.5667V23.2733C19.0002 23.04 19.1412 22.8533 19.3763 22.8067C21.6327 22.48 23.466 20.6133 23.8421 18.3733C23.8891 18.1867 24.0771 18 24.3121 18H39.2139ZM38.7908 18.8867H24.6882C24.1711 21.2667 22.2908 23.0867 19.8933 23.6467V27.52C19.8933 31.3933 21.0686 35.08 23.278 38.2533C25.3933 41.2867 28.3079 43.5733 31.7395 44.9733C35.1711 43.62 38.0857 41.2867 40.201 38.2533C42.4104 35.08 43.5857 31.3933 43.5857 27.52V23.6467C41.1882 23.0867 39.3079 21.2667 38.7908 18.8867ZM35.8763 27.7533C36.0643 27.5667 36.3933 27.6133 36.4874 27.8467C36.6754 28.0333 36.6284 28.36 36.4404 28.5L30.0002 33.68C29.9532 33.7267 29.8121 33.7733 29.7181 33.7733H29.6711C29.5301 33.7733 29.4361 33.68 29.3421 33.5867L26.8976 30.2267C26.7566 29.9933 26.8036 29.7133 26.9916 29.5733C27.2267 29.4333 27.5087 29.48 27.6498 29.6667L29.8121 32.6067L35.8763 27.7533Z" fill="white"/>
</svg>
