<svg width="64" height="64" viewBox="0 0 64 64" fill="none" xmlns="http://www.w3.org/2000/svg">
<rect width="64" height="64" rx="32" fill="#575445"/>
<path d="M44.3527 21.7333C44.1158 21.64 38.4281 19.8667 34.9207 21.6867C32.9301 22.7133 31.4133 24.16 30.655 25.7467C30.3706 24.2533 29.5649 22.7133 28.3325 21.3133C25.7731 18.42 19.8011 18 19.5641 18C19.2797 18 19.0901 18.1867 19.0427 18.42C19.0427 18.6533 18.5213 24.44 21.1282 27.38C22.9767 29.4333 25.2517 30.6 27.1476 30.6C28.0008 30.6 28.7591 30.3667 29.3753 29.9C28.6643 32.14 27.669 37.3667 29.2805 45.6267C29.3279 45.86 29.5175 46 29.7544 46C29.8018 46 29.8018 46 29.8492 46C30.0862 45.9533 30.2758 45.72 30.2284 45.44C28.2851 35.64 30.2284 30.2267 30.655 29.2C31.3659 30.46 32.8827 31.1133 34.7311 31.1133C36.1531 31.1133 37.7646 30.74 39.3287 29.9C42.836 28.1267 44.5897 22.5733 44.6371 22.34C44.7319 22.06 44.5897 21.8267 44.3527 21.7333ZM21.8391 26.7733C19.8959 24.6267 19.8959 20.38 19.9433 18.98C21.3652 19.12 25.6783 19.7733 27.6216 21.92C29.0909 23.5533 29.8966 25.56 29.8018 27.1467C29.7544 27.94 29.4227 28.5933 28.9487 29.0133C27.3372 30.3667 24.1616 29.34 21.8391 26.7733ZM38.9021 29.06C35.8213 30.6467 32.4087 30.46 31.4133 28.64C31.0816 28.08 31.0816 27.38 31.3186 26.5867C31.7925 25.0467 33.3566 23.46 35.3473 22.48C36.3426 21.9667 37.575 21.78 38.8073 21.78C40.798 21.78 42.7412 22.2467 43.5944 22.48C43.1204 23.8333 41.5089 27.7533 38.9021 29.06Z" fill="white"/>
</svg>
