<svg width="64" height="64" viewBox="0 0 64 64" fill="none" xmlns="http://www.w3.org/2000/svg">
<rect width="64" height="64" rx="32" fill="#575445"/>
<path d="M43.5267 21.821H27.24C26.4933 20.1562 24.8133 19 22.8533 19C20.1467 19.0462 18 21.1736 18 23.8096V39.8571C18 42.4931 20.1467 44.6667 22.8533 44.6667H22.9H43.5267C44.9267 44.6667 46 43.5568 46 42.2156V24.3183C46 22.9309 44.88 21.821 43.5267 21.821ZM18.9333 23.8096C18.9333 21.6823 20.66 19.9249 22.8533 19.9249C25.0467 19.9249 26.7733 21.636 26.7733 23.8096V37.036C25.8867 35.8336 24.4867 35.0474 22.8533 35.0474C21.2667 35.0474 19.82 35.8336 18.9333 37.036V23.8096ZM18.9333 39.9033C18.9333 37.776 20.66 36.0186 22.8533 36.0186C25.0467 36.0186 26.7733 37.7297 26.7733 39.9033C26.7733 42.0769 25.0467 43.788 22.8533 43.788C20.66 43.788 18.9333 42.0306 18.9333 39.9033ZM45.0667 42.2156C45.0667 43.048 44.3667 43.7417 43.5267 43.7417H25.7C26.9133 42.8631 27.7067 41.4757 27.7067 39.8571V23.8096C27.7067 23.4396 27.66 23.0697 27.5667 22.7459H43.5267C44.3667 22.7459 45.0667 23.4396 45.0667 24.3183V42.2156Z" fill="white"/>
</svg>
