<svg width="64" height="64" viewBox="0 0 64 64" fill="none" xmlns="http://www.w3.org/2000/svg">
<rect width="64" height="64" rx="32" fill="#575445"/>
<path d="M32.7933 29.6535L32.877 29.6594C32.9875 29.6756 33.092 29.7274 33.1667 29.8383L37.9267 36.5842L39.14 34.6898C39.2333 34.5512 39.3733 34.4587 39.5133 34.4587C39.6533 34.4587 39.7933 34.5049 39.8867 34.6436L44.1333 40.7426H45.5333C45.8133 40.7426 46 40.9274 46 41.2046C46 41.4818 45.8133 41.6667 45.5333 41.6667H18.4667C18.1867 41.6667 18 41.4818 18 41.2046C18 40.9274 18.1867 40.7426 18.4667 40.7426H19.82L25 31.8251C25.0933 31.6865 25.2333 31.5941 25.42 31.5941C25.6067 31.5941 25.7467 31.6865 25.84 31.8251L28.3133 35.7987L32.42 29.8383C32.5133 29.7459 32.6533 29.6535 32.7933 29.6535ZM32.7467 30.9934L28.5933 36.9538C28.5467 37.0462 28.36 37.1386 28.22 37.1386C28.08 37.1386 27.94 37.0462 27.8467 36.9076L25.42 32.9802L20.8933 40.7888H42.92L39.42 35.7987L38.2067 37.6931C38.1133 37.8317 37.9733 37.9241 37.8333 37.9241C37.6933 37.9241 37.5533 37.8779 37.46 37.7393L32.7467 30.9934ZM41.3333 23C43.0133 23 44.3667 24.3399 44.3667 26.0033C44.3667 27.6667 43.0133 29.0066 41.3333 29.0066C39.6533 29.0066 38.3 27.6667 38.3 26.0033C38.3 24.3399 39.6533 23 41.3333 23ZM41.3333 23.9241C40.1667 23.9241 39.2333 24.8482 39.2333 26.0033C39.2333 27.1584 40.1667 28.0825 41.3333 28.0825C42.5 28.0825 43.4333 27.1584 43.4333 26.0033C43.4333 24.8482 42.5 23.9241 41.3333 23.9241Z" fill="white"/>
</svg>
